<?xml version="1.0" encoding="UTF-8" standalone="no"?>
<!-- Created with Inkscape (http://www.inkscape.org/) -->

<svg
   width="512"
   height="512"
   viewBox="0 0 512 512"
   version="1.1"
   id="svg1"
   xmlns:xlink="http://www.w3.org/1999/xlink"
   xmlns="http://www.w3.org/2000/svg"
   xmlns:svg="http://www.w3.org/2000/svg">
  <defs
     id="defs1">
    <linearGradient
       id="linearGradient12">
      <stop
         style="stop-color:#ff0000;stop-opacity:1;"
         offset="0.5"
         id="stop12" />
      <stop
         style="stop-color:#ff0000;stop-opacity:0.05;"
         offset="1"
         id="stop13" />
    </linearGradient>
    <linearGradient
       id="linearGradient10">
      <stop
         style="stop-color:#ff0000;stop-opacity:1;"
         offset="0"
         id="stop10" />
      <stop
         style="stop-color:#ff0000;stop-opacity:1;"
         offset="0.94999999"
         id="stop11" />
    </linearGradient>
    <linearGradient
       id="linearGradient6">
      <stop
         style="stop-color:#140000;stop-opacity:1;"
         offset="0"
         id="stop6" />
      <stop
         style="stop-color:#570000;stop-opacity:1;"
         offset="1"
         id="stop7" />
    </linearGradient>
    <filter
       style="color-interpolation-filters:sRGB"
       id="filter4"
       x="-0.090532216"
       y="-0.090654565"
       width="1.1810644"
       height="1.1813091">
      <feGaussianBlur
         stdDeviation="1.0020298"
         id="feGaussianBlur4" />
    </filter>
    <linearGradient
       xlink:href="#linearGradient6"
       id="linearGradient7"
       x1="-2.9048715"
       y1="16.02165"
       x2="34.991474"
       y2="16.02165"
       gradientUnits="userSpaceOnUse" />
    <linearGradient
       xlink:href="#linearGradient12"
       id="linearGradient13"
       x1="4.3835807"
       y1="16.338501"
       x2="28.244865"
       y2="16.338501"
       gradientUnits="userSpaceOnUse" />
  </defs>
  <g
     id="layer1">
    <rect
       style="opacity:1;mix-blend-mode:normal;fill:url(#linearGradient7);fill-rule:nonzero;stroke:#ffffff;stroke-linejoin:bevel;stroke-opacity:0.305322;filter:url(#filter4);image-rendering:auto"
       id="rect1"
       width="32.086605"
       height="32.043301"
       x="0"
       y="0"
       transform="matrix(0,20.265806,-20.288993,0,581.0632,-69.13044)" />
    <path
       style="opacity:1;fill:#000000;fill-opacity:0;fill-rule:nonzero;stroke:url(#linearGradient13);stroke-linejoin:bevel;stroke-opacity:1"
       d="m 24.260428,15.646292 c 0.745062,-1.092076 -0.09186,-0.561348 -0.602174,-0.704244 -0.510318,-0.142897 -0.694028,-0.959386 -0.09184,-1.918791 0.602187,-0.959406 1.99022,-2.061667 2.939413,-3.5518088 0.949193,-1.4901417 1.459499,-3.3680674 1.132885,-3.704864 -0.326614,-0.3367967 -1.490112,0.8675254 -3.061906,1.867753 -1.571793,1.0002276 -3.55178,1.7963048 -5.297076,2.7659168 -1.745296,0.969612 -3.255801,2.112698 -3.327232,2.561773 -0.07143,0.449076 1.296189,0.204129 2.19435,0.408262 0.89816,0.204133 1.326818,0.857325 1.153302,1.837145 -0.173515,0.97982 -0.94918,2.286203 -1.939206,3.000647 -0.990025,0.714443 -2.194347,0.836917 -2.490324,0.428654 -0.295977,-0.408262 0.31639,-1.347225 -0.01023,-1.285976 -0.326615,0.06125 -1.592174,1.122685 -2.551575,2.327044 -0.959401,1.20436 -1.612592,2.551567 -2.6536513,3.76613 -1.0410592,1.214564 -2.4699154,2.296412 -3.5007603,2.878174 -1.0308449,0.581761 -1.6636245,0.66341 -1.000194,0.642996 0.6634306,-0.02041 2.6230053,-0.142887 5.1235846,-0.959408 2.50058,-0.816521 5.542003,-2.327027 8.226289,-4.439763 2.684286,-2.112736 5.011281,-4.827563 5.756342,-5.91964 z"
       id="path10"
       transform="matrix(16.093014,0,0,17.251519,-6.5450269,-25.864178)" />
  </g>
</svg>
