<?xml version="1.0"?>
<svg width="512" height="512" xmlns="http://www.w3.org/2000/svg" xmlns:svg="http://www.w3.org/2000/svg" version="1.1">

 <g class="layer">
  <title>Layer 1</title>
  <g id="layer1">
   <path d="m24.26,15.65c0.75,-1.1 -0.09,-0.57 -0.6,-0.71c-0.51,-0.14 -0.7,-0.96 -0.09,-1.92c0.6,-0.96 1.99,-2.06 2.94,-3.55c0.95,-1.49 1.46,-3.37 1.13,-3.7c-0.33,-0.34 -1.49,0.86 -3.06,1.86c-1.57,1 -3.55,1.8 -5.3,2.77c-1.75,0.97 -3.26,2.11 -3.33,2.56c-0.07,0.45 1.3,0.21 2.2,0.41c0.9,0.2 1.32,0.86 1.15,1.84c-0.17,0.98 -0.95,2.28 -1.94,3c-0.99,0.71 -2.19,0.83 -2.49,0.43c-0.3,-0.41 0.32,-1.35 -0.01,-1.29c-0.33,0.06 -1.59,1.12 -2.55,2.33c-0.96,1.2 -1.61,2.55 -2.65,3.76c-1.05,1.22 -2.47,2.3 -3.51,2.88c-1.03,0.58 -1.66,0.67 -1,0.65c0.67,-0.03 2.63,-0.15 5.13,-0.96c2.5,-0.82 5.54,-2.33 8.22,-4.44c2.69,-2.12 5.02,-4.83 5.76,-5.92z" fill="#000000" fill-opacity="0" fill-rule="nonzero" id="path10" stroke="#000000" stroke-linejoin="bevel" transform="matrix(16.093014,0,0,17.251519,-6.5450269,-25.864178)"/>
  </g>
 </g>
</svg>